<svg width="34" height="33" viewBox="0 0 34 33" fill="none" xmlns="http://www.w3.org/2000/svg">
<g clip-path="url(#clip0_626_5950)">
<path d="M33.1344 16.664C33.1344 7.74105 25.8862 0.509277 16.9432 0.509277C8.00009 0.509277 0.751953 7.74105 0.751953 16.664C0.751953 24.7287 6.67187 31.4114 14.4133 32.623V21.3337H10.3022V16.664H14.4133V13.1049C14.4133 9.05672 16.8294 6.8197 20.5293 6.8197C22.3002 6.8197 24.1533 7.13522 24.1533 7.13522V11.1108H22.1105C20.0992 11.1108 19.473 12.3571 19.473 13.635V16.664H23.9635L23.2457 21.3337H19.473V32.623C27.2145 31.4114 33.1344 24.7287 33.1344 16.664Z" fill="white"/>
</g>
<defs>
<clipPath id="clip0_626_5950">
<rect width="32.3824" height="32.3094" fill="white" transform="translate(0.751953 0.509277)"/>
</clipPath>
</defs>
</svg>
