<svg width="34" height="33" viewBox="0 0 34 33" fill="none" xmlns="http://www.w3.org/2000/svg">
<g clip-path="url(#clip0_626_5953)">
<path fill-rule="evenodd" clip-rule="evenodd" d="M16.8353 0.509277C7.89312 0.509277 0.644043 7.742 0.644043 16.664C0.644043 25.5859 7.89312 32.8186 16.8353 32.8186C25.7774 32.8186 33.0265 25.5859 33.0265 16.664C33.0265 7.742 25.7774 0.509277 16.8353 0.509277ZM13.277 8.10001C14.198 8.05821 14.4924 8.04798 16.8376 8.04798H16.8349C19.1809 8.04798 19.4741 8.05821 20.3952 8.10001C21.3146 8.14201 21.9424 8.2872 22.4929 8.50031C23.0614 8.72015 23.5417 9.01457 24.0221 9.49382C24.5024 9.97267 24.7975 10.4534 25.0188 11.0201C25.2311 11.5679 25.3768 12.194 25.42 13.1113C25.4613 14.0303 25.4721 14.3239 25.4721 16.6639C25.4721 19.0038 25.4613 19.2968 25.42 20.2157C25.3768 21.1327 25.2311 21.7589 25.0188 22.3069C24.7975 22.8734 24.5024 23.3541 24.0221 23.8331C23.5423 24.3123 23.0612 24.6074 22.4934 24.8274C21.944 25.0405 21.3158 25.1857 20.3964 25.2277C19.4754 25.2695 19.182 25.2798 16.8365 25.2798C14.4915 25.2798 14.1974 25.2695 13.2762 25.2277C12.3571 25.1857 11.7294 25.0405 11.18 24.8274C10.6124 24.6074 10.1306 24.3123 9.65081 23.8331C9.17061 23.3541 8.87559 22.8734 8.65485 22.3068C8.44146 21.7589 8.29595 21.1329 8.25365 20.2156C8.21195 19.2965 8.2015 19.0038 8.2015 16.6639C8.2015 14.3239 8.21229 14.0301 8.25351 13.1111C8.29487 12.1941 8.44059 11.5679 8.65465 11.0199C8.87593 10.4534 9.17101 9.97267 9.65135 9.49382C10.1314 9.0147 10.6131 8.72035 11.1811 8.50031C11.7301 8.2872 12.3576 8.14201 13.277 8.10001ZM16.5498 9.60051H16.5496C16.3751 9.60044 16.2133 9.60038 16.0629 9.60058V9.59842C14.4535 9.60024 14.1448 9.61101 13.3482 9.64689C12.5063 9.68552 12.0491 9.82553 11.7447 9.944C11.3417 10.1005 11.0538 10.2872 10.7516 10.5888C10.4494 10.8903 10.262 11.1775 10.1054 11.5796C9.98725 11.8833 9.84652 12.3392 9.80807 13.1792C9.76665 14.0875 9.75842 14.3589 9.75842 16.6598C9.75842 18.9605 9.76665 19.2334 9.80807 20.1416C9.84639 20.9817 9.98725 21.4376 10.1054 21.741C10.2623 22.1432 10.4494 22.4297 10.7516 22.7312C11.0538 23.0328 11.3417 23.2195 11.7447 23.3757C12.0493 23.4936 12.5063 23.6339 13.3482 23.6727C14.2585 23.714 14.5318 23.723 16.8376 23.723C19.1432 23.723 19.4167 23.714 20.327 23.6727C21.169 23.6343 21.6263 23.4943 21.9304 23.3759C22.3335 23.2197 22.6204 23.033 22.9227 22.7314C23.2249 22.4301 23.4124 22.1437 23.5689 21.7417C23.6871 21.4383 23.8278 20.9824 23.8663 20.1424C23.9076 19.2341 23.9167 18.9613 23.9167 16.6619C23.9167 14.3625 23.9076 14.0897 23.8663 13.1814C23.828 12.3414 23.6871 11.8855 23.5689 11.5821C23.4121 11.18 23.2249 10.8928 22.9227 10.5913C22.6206 10.2897 22.3333 10.103 21.9304 9.94683C21.626 9.8289 21.169 9.68855 20.327 9.65012C19.4165 9.60886 19.1432 9.60058 16.8376 9.60058L16.5498 9.60051ZM21.4471 11.0312C20.875 11.0312 20.4109 11.4938 20.4109 12.0648C20.4109 12.6356 20.875 13.0987 21.4471 13.0987C22.0192 13.0987 22.4834 12.6356 22.4834 12.0648C22.4834 11.494 22.0192 11.0309 21.4471 11.0309V11.0312ZM12.403 16.6639C12.403 14.2204 14.3885 12.2393 16.8374 12.2392C19.2865 12.2392 21.2715 14.2203 21.2715 16.6639C21.2715 19.1074 19.2867 21.0876 16.8376 21.0876C14.3886 21.0876 12.403 19.1074 12.403 16.6639ZM16.8376 13.7919C18.4273 13.7919 19.7161 15.0776 19.7161 16.6639C19.7161 18.2499 18.4273 19.5358 16.8376 19.5358C15.2478 19.5358 13.9592 18.2499 13.9592 16.6639C13.9592 15.0776 15.2478 13.7919 16.8376 13.7919Z" fill="white"/>
</g>
<defs>
<clipPath id="clip0_626_5953">
<rect width="32.3824" height="32.3094" fill="white" transform="translate(0.64502 0.509277)"/>
</clipPath>
</defs>
</svg>
