<svg width="34" height="33" viewBox="0 0 34 33" fill="none" xmlns="http://www.w3.org/2000/svg">
<g clip-path="url(#clip0_626_5957)">
<path fill-rule="evenodd" clip-rule="evenodd" d="M16.886 0.509277C7.9439 0.509277 0.694824 7.742 0.694824 16.664C0.694824 25.5859 7.9439 32.8186 16.886 32.8186C25.8282 32.8186 33.0773 25.5859 33.0773 16.664C33.0773 7.742 25.8282 0.509277 16.886 0.509277ZM10.3027 12.3878C11.582 12.3878 12.3789 11.5427 12.3789 10.4866C12.3551 9.40803 11.582 8.58657 10.3268 8.58657C9.07159 8.58657 8.25097 9.40803 8.25097 10.4866C8.25097 11.5427 9.04737 12.3878 10.2792 12.3878H10.3027ZM12.1372 24.8891V13.8892H8.46793V24.8891H12.1372ZM25.3701 18.5821L25.3699 24.8891H21.7008V19.0041C21.7008 17.526 21.1698 16.5173 19.8415 16.5173C18.8278 16.5173 18.224 17.1973 17.9588 17.854C17.8618 18.0894 17.838 18.4174 17.838 18.7461V24.8893H14.1682C14.1682 24.8893 14.2166 14.9217 14.1682 13.8895H17.838V15.4475C18.3249 14.6986 19.1972 13.6309 21.1453 13.6309C23.5599 13.6309 25.3701 15.2035 25.3701 18.5821Z" fill="white"/>
</g>
<defs>
<clipPath id="clip0_626_5957">
<rect width="32.3824" height="32.3094" fill="white" transform="translate(0.694824 0.509277)"/>
</clipPath>
</defs>
</svg>
