<svg width="34" height="33" viewBox="0 0 34 33" fill="none" xmlns="http://www.w3.org/2000/svg">
<g clip-path="url(#clip0_626_5946)">
<path fill-rule="evenodd" clip-rule="evenodd" d="M16.8939 0.509277C7.95171 0.509277 0.702637 7.742 0.702637 16.664C0.702637 25.5859 7.95171 32.8186 16.8939 32.8186C25.836 32.8186 33.0851 25.5859 33.0851 16.664C33.0851 7.742 25.836 0.509277 16.8939 0.509277ZM16.4431 14.1993L16.4091 13.6403C16.3071 12.1915 17.2018 10.8682 18.6176 10.3548C19.1385 10.1723 20.0219 10.1495 20.5995 10.3092C20.826 10.3777 21.2564 10.6058 21.5621 10.8112L22.1171 11.1876L22.7286 10.9937C23.0685 10.891 23.5215 10.7199 23.7253 10.6058C23.9178 10.5031 24.0877 10.4461 24.0877 10.4803C24.0877 10.6742 23.6687 11.3359 23.3176 11.701C22.8419 12.2143 22.9779 12.26 23.9405 11.9177C24.5181 11.7238 24.5294 11.7238 24.4162 11.9406C24.3482 12.0546 23.9971 12.4539 23.6233 12.819C22.9891 13.4464 22.9552 13.5148 22.9552 14.0396C22.9552 14.8496 22.5701 16.5379 22.185 17.462C21.4715 19.196 19.9426 20.9871 18.4137 21.8883C16.2619 23.1545 13.3965 23.4739 10.9842 22.7324C10.1801 22.4815 8.7984 21.8426 8.7984 21.7286C8.7984 21.6943 9.21741 21.6487 9.7271 21.6373C10.7917 21.6145 11.8562 21.3179 12.7623 20.7931L13.3739 20.428L12.6717 20.1885C11.675 19.8463 10.7803 19.0591 10.5539 18.3176C10.4859 18.078 10.5085 18.0666 11.1427 18.0666L11.7996 18.0552L11.2447 17.7928C10.5878 17.462 9.98757 16.903 9.6931 16.3326C9.47795 15.9219 9.20615 14.8838 9.28541 14.8039C9.30801 14.7697 9.54589 14.8382 9.8177 14.9295C10.5991 15.2147 10.7011 15.1462 10.248 14.667C9.39862 13.8 9.13814 12.511 9.54589 11.2903L9.73843 10.7427L10.4859 11.4842C12.0148 12.9786 13.8156 13.8685 15.8768 14.1309L16.4431 14.1993Z" fill="white"/>
</g>
<defs>
<clipPath id="clip0_626_5946">
<rect width="32.3824" height="32.3094" fill="white" transform="translate(0.702637 0.509277)"/>
</clipPath>
</defs>
</svg>
